<svg xmlns="http://www.w3.org/2000/svg" version="1.1" xmlns:xlink="http://www.w3.org/1999/xlink" xmlns:svgjs="http://svgjs.dev/svgjs" width="2000" height="1500" viewBox="0 0 2000 1500"><rect width="2000" height="1500" fill="#000000"></rect><g transform="matrix(0.45004500450045004,0,0,0.45004500450045004,549.103980193153,250)"><svg viewBox="0 0 252 280" data-background-color="#a30e5b" preserveAspectRatio="xMidYMid meet" height="2222" width="2000" xmlns="http://www.w3.org/2000/svg" xmlns:xlink="http://www.w3.org/1999/xlink"><g id="tight-bounds" transform="matrix(1,0,0,1,0.2382604573625713,0)"><svg viewBox="0 0 251.52311753213715 280" height="280" width="251.52311753213715"><g><svg viewBox="0 0 278.2696 309.77465914259244" height="280" width="251.52311753213715"><g><svg viewBox="0 0 278.2696 309.77465914259244" height="309.77465914259244" width="278.2696"><g id="textblocktransform"><svg viewBox="0 0 278.2696 309.77465914259244" height="309.77465914259244" width="278.2696" id="textblock"><g><svg viewBox="0 0 278.2696 278.2696" height="278.2696" width="278.2696"><g transform="matrix(1,0,0,1,95.80000018653786,89.94321971048298)"><svg viewBox="0 0 86.66959962692432 98.38316057903407" height="98.38316057903407" width="86.66959962692432"><g id="icon-0"><svg xmlns="http://www.w3.org/2000/svg" xmlns:xlink="http://www.w3.org/1999/xlink" version="1.1" x="0" y="0" viewBox="10 11.5 79 89.67699999999999" enable-background="new 0 0 99 110" xml:space="preserve" height="98.38316057903407" width="86.66959962692432" class="icon-xg-0" data-fill-palette-color="accent" id="xg-0"><path fill="#ffffff" d="M89 20.5v-9H10v9h35.428c4.718 1 8.651 4 10.761 8H14v9h43.684c-1.121 8-7.545 13.232-15.303 13.232-3.319 0-6.39-1.011-8.909-2.79l-3.593-3.574L18.934 55.322l45.854 45.855 10.944-10.94L50.651 65.004C63.011 61.584 72.264 50.5 73.244 37.5H83v-9H72.525c-0.673-3-1.74-6-3.165-8H89z" data-fill-palette-color="accent"></path></svg></g></svg></g><g id="text-0"><path d="M114.919 6.48v0c0.448 1.496 0.448 2.825 0.002 3.986-0.444 1.168-1.154 2.206-2.13 3.114v0l4.683 4.817c0.446 0.448 0.918 0.76 1.418 0.937 0.495 0.185 0.952 0.41 1.371 0.674 0.426 0.262 0.747 0.755 0.962 1.476v0c0.222 0.742 0.166 1.35-0.166 1.825-0.328 0.467-0.847 0.806-1.556 1.018v0l-8.39 2.511c-1.503 0.449-2.467-0.038-2.893-1.463v0c-0.165-0.553-0.112-1.132 0.16-1.738v0c-0.026-0.134-0.038-0.269-0.036-0.404 0.002-0.135-0.016-0.268-0.055-0.398v0c-0.053-0.176-0.254-0.494-0.605-0.956-0.351-0.462-0.768-0.979-1.25-1.55-0.474-0.567-0.93-1.107-1.368-1.622v0c-0.152 0.06-0.3 0.111-0.443 0.154v0c-0.813 0.243-1.653 0.395-2.52 0.457v0l0.887 2.966c0.109 0.364 0.202 0.606 0.28 0.724 0.078 0.118 0.282 0.291 0.612 0.518v0c0.536 0.371 1.009 0.697 1.42 0.979 0.41 0.281 0.719 0.77 0.927 1.465v0c0.226 0.755 0.178 1.364-0.144 1.829-0.324 0.458-0.846 0.795-1.568 1.012v0l-9.61 2.874c-0.709 0.212-1.325 0.212-1.85 0.001-0.526-0.218-0.9-0.698-1.121-1.44v0c-0.204-0.683-0.221-1.224-0.05-1.622 0.171-0.399 0.406-0.752 0.703-1.061 0.302-0.317 0.545-0.652 0.731-1.005 0.185-0.353 0.192-0.816 0.02-1.388v0l-4.284-14.323c-0.173-0.579-0.435-0.968-0.785-1.168-0.35-0.2-0.738-0.346-1.163-0.439-0.418-0.095-0.809-0.265-1.173-0.51-0.362-0.239-0.643-0.693-0.844-1.363v0c-0.222-0.742-0.172-1.345 0.15-1.809 0.32-0.471 0.834-0.813 1.543-1.025v0l10.928-3.269c1.203-0.36 2.496-0.647 3.877-0.863 1.383-0.208 2.763-0.288 4.138-0.238 1.375 0.049 2.679 0.286 3.912 0.711 1.231 0.418 2.304 1.082 3.221 1.991 0.923 0.907 1.61 2.112 2.059 3.615zM98.305 5.381l-0.341 0.102 3.111 10.4c0.3-0.062 0.633-0.147 0.997-0.255v0c1.594-0.477 2.602-1.274 3.026-2.394 0.419-1.11 0.405-2.414-0.043-3.909v0c-0.453-1.516-1.298-2.669-2.534-3.462-1.243-0.79-2.648-0.951-4.216-0.482z" fill="#ffffff" data-fill-palette-color="primary"></path><path d="M208.946 27.274v0l-4.752 8.109c-0.491 0.838-0.679 1.42-0.564 1.748 0.115 0.327 0.541 0.769 1.276 1.326v0c0.573 0.446 0.999 0.853 1.279 1.222 0.274 0.365 0.186 0.931-0.263 1.698v0c-0.312 0.533-0.706 0.842-1.18 0.926-0.48 0.081-0.978-0.03-1.494-0.332v0l-10.868-6.37c-0.492-0.288-0.822-0.659-0.99-1.111-0.174-0.456-0.108-0.944 0.198-1.466v0c0.35-0.597 0.718-0.937 1.104-1.017 0.376-0.078 0.762-0.085 1.156-0.019 0.394 0.066 0.796 0.038 1.206-0.084 0.407-0.131 0.817-0.548 1.229-1.251v0l3.996-6.818c0.257-0.439 0.299-0.852 0.124-1.238-0.181-0.389-0.415-0.782-0.703-1.179-0.287-0.396-0.5-0.824-0.64-1.284-0.137-0.45-0.045-0.951 0.278-1.501v0c0.285-0.486 0.659-0.762 1.123-0.829 0.47-0.063 0.927 0.036 1.373 0.297v0l1.397 0.818 0.113-0.193c0.065-0.111 0.004-0.41-0.182-0.898-0.181-0.484-0.316-1.051-0.407-1.702-0.087-0.657 0.034-1.267 0.364-1.829v0c0.614-1.048 1.366-1.8 2.254-2.255 0.888-0.455 1.842-0.679 2.861-0.673 1.019 0.007 2.042 0.174 3.07 0.502 1.019 0.33 1.97 0.753 2.855 1.271v0c0.802 0.47 1.573 1.048 2.313 1.734 0.73 0.688 1.346 1.45 1.847 2.286 0.501 0.837 0.782 1.721 0.841 2.653 0.066 0.936-0.18 1.878-0.735 2.827v0c-0.566 0.966-1.288 1.574-2.167 1.823-0.868 0.246-1.792 0.083-2.77-0.49v0c-1.025-0.601-1.673-1.382-1.943-2.343-0.261-0.964-0.088-1.964 0.519-3.001v0c0.206-0.351 0.396-0.709 0.569-1.071 0.177-0.369 0.235-0.724 0.176-1.066-0.054-0.338-0.315-0.645-0.784-0.919v0c-0.486-0.285-0.903-0.313-1.249-0.084-0.347 0.229-0.642 0.552-0.886 0.969v0c-0.275 0.469-0.357 0.991-0.246 1.567 0.12 0.574 0.3 1.16 0.54 1.757 0.243 0.606 0.426 1.186 0.551 1.739 0.124 0.553 0.061 1.043-0.189 1.471v0l-0.093 0.158 3.233 1.895c0.433 0.254 0.748 0.584 0.943 0.989 0.189 0.402 0.141 0.846-0.143 1.333v0c-0.419 0.715-0.96 1.102-1.625 1.16-0.674 0.062-1.358-0.052-2.054-0.342-0.702-0.293-1.322-0.598-1.861-0.913z" fill="#ffffff" data-fill-palette-color="primary"></path><path d="M122.703 259.174v0c-0.45 1.601-1.207 2.806-2.273 3.614-1.071 0.8-2.312 1.329-3.725 1.588v0l1.49 7.051c0.144 0.668 0.39 1.224 0.738 1.666 0.346 0.45 0.635 0.915 0.867 1.397 0.232 0.481 0.238 1.111 0.02 1.888v0c-0.226 0.804-0.625 1.323-1.199 1.557-0.567 0.236-1.229 0.247-1.987 0.034v0l-9.05-2.54c-1.621-0.455-2.216-1.451-1.785-2.987v0c0.167-0.595 0.548-1.087 1.144-1.477v0c0.053-0.14 0.121-0.269 0.204-0.387 0.078-0.126 0.136-0.258 0.175-0.395v0c0.051-0.183 0.052-0.588 0.003-1.216-0.051-0.621-0.132-1.327-0.241-2.119-0.103-0.79-0.205-1.542-0.309-2.255v0c-0.175-0.028-0.342-0.064-0.498-0.108v0c-0.876-0.246-1.72-0.592-2.533-1.039v0l-0.897 3.196c-0.11 0.392-0.166 0.666-0.167 0.821 0.007 0.15 0.092 0.424 0.256 0.822v0c0.272 0.64 0.515 1.206 0.73 1.697 0.207 0.495 0.205 1.115-0.004 1.86v0c-0.229 0.817-0.623 1.341-1.182 1.572-0.558 0.231-1.223 0.238-1.995 0.022v0l-10.364-2.909c-0.758-0.213-1.315-0.567-1.669-1.061-0.355-0.494-0.419-1.144-0.194-1.948v0c0.206-0.732 0.501-1.231 0.886-1.496 0.385-0.266 0.8-0.452 1.246-0.56 0.455-0.112 0.867-0.275 1.237-0.488 0.37-0.213 0.642-0.631 0.817-1.252v0l4.332-15.433c0.174-0.621 0.16-1.122-0.043-1.504-0.201-0.388-0.468-0.745-0.8-1.07-0.325-0.324-0.583-0.7-0.773-1.127-0.19-0.427-0.185-1 0.017-1.719v0c0.226-0.804 0.619-1.325 1.179-1.563 0.56-0.238 1.22-0.25 1.978-0.037v0l11.776 3.306c1.294 0.363 2.63 0.844 4.006 1.442 1.376 0.598 2.674 1.315 3.892 2.15 1.216 0.842 2.261 1.805 3.134 2.889 0.871 1.091 1.463 2.311 1.776 3.661 0.312 1.35 0.241 2.835-0.215 4.457zM108.281 248.641l-0.353-0.099-3.146 11.207c0.3 0.112 0.649 0.225 1.048 0.337v0c1.719 0.483 3.088 0.341 4.106-0.423 1.02-0.771 1.756-1.961 2.208-3.569v0c0.459-1.634 0.353-3.166-0.318-4.596-0.671-1.429-1.852-2.382-3.545-2.857z" fill="#ffffff" data-fill-palette-color="primary"></path><path d="M205.14 243.545v0l5.21 8.632c0.537 0.889 0.99 1.365 1.361 1.427 0.367 0.056 1.003-0.118 1.909-0.522v0c0.715-0.313 1.317-0.505 1.805-0.578 0.488-0.072 0.977 0.298 1.468 1.112v0c0.34 0.564 0.428 1.09 0.262 1.578-0.168 0.498-0.527 0.913-1.079 1.247v0l-11.553 6.973c-0.529 0.319-1.051 0.44-1.565 0.362-0.517-0.069-0.942-0.379-1.276-0.931v0c-0.386-0.639-0.517-1.159-0.394-1.559 0.118-0.396 0.309-0.762 0.576-1.097 0.268-0.344 0.445-0.741 0.531-1.189 0.09-0.443-0.094-1.042-0.55-1.797v0l-4.378-7.254c-0.281-0.465-0.647-0.711-1.1-0.74-0.457-0.034-0.947-0.019-1.473 0.044-0.521 0.069-1.03 0.055-1.524-0.043-0.499-0.103-0.925-0.449-1.28-1.036v0c-0.312-0.517-0.38-1.011-0.205-1.482 0.172-0.477 0.497-0.859 0.974-1.146v0l1.491-0.9-0.121-0.201c-0.07-0.116-0.381-0.21-0.932-0.282-0.554-0.078-1.161-0.243-1.821-0.495-0.665-0.249-1.181-0.675-1.546-1.279v0c-0.67-1.11-0.991-2.201-0.964-3.273 0.027-1.071 0.305-2.083 0.832-3.035 0.524-0.958 1.203-1.836 2.039-2.634 0.835-0.797 1.723-1.48 2.665-2.049v0c0.854-0.516 1.794-0.944 2.817-1.284 1.02-0.346 2.054-0.538 3.102-0.576 1.044-0.043 2.022 0.144 2.932 0.562 0.91 0.418 1.671 1.133 2.282 2.144v0c0.621 1.029 0.826 2.019 0.615 2.971-0.22 0.95-0.85 1.738-1.89 2.366v0c-1.087 0.656-2.152 0.863-3.195 0.62-1.049-0.239-1.904-0.908-2.567-2.007v0c-0.228-0.378-0.469-0.744-0.723-1.099-0.25-0.349-0.551-0.584-0.901-0.705-0.345-0.125-0.77-0.035-1.276 0.271v0c-0.512 0.309-0.748 0.685-0.71 1.13 0.038 0.445 0.191 0.888 0.458 1.33v0c0.302 0.5 0.751 0.843 1.347 1.03 0.602 0.184 1.248 0.313 1.937 0.39 0.686 0.086 1.325 0.211 1.917 0.377 0.583 0.164 1.011 0.472 1.284 0.926v0l0.1 0.166 3.444-2.079c0.465-0.281 0.936-0.406 1.414-0.378 0.477 0.029 0.872 0.302 1.184 0.82v0c0.46 0.761 0.548 1.473 0.266 2.135-0.286 0.656-0.747 1.24-1.382 1.75-0.636 0.51-1.241 0.939-1.817 1.287z" fill="#ffffff" data-fill-palette-color="primary"></path><path d="M0 140.457c0-6.411 5.197-11.608 11.608-11.609 6.411 0 11.608 5.197 11.609 11.609 0 6.411-5.197 11.608-11.609 11.608-6.411 0-11.608-5.197-11.608-11.608z" fill="#ffffff" data-fill-palette-color="primary"></path><path d="M255.053 140.457c0-6.411 5.197-11.608 11.608-11.609 6.411 0 11.608 5.197 11.609 11.609 0 6.411-5.197 11.608-11.609 11.608-6.411 0-11.608-5.197-11.608-11.608z" fill="#ffffff" data-fill-palette-color="primary"></path></g><g id="text-1"></g></svg></g><g transform="matrix(1,0,0,1,53.1494936,298.04560000000004)"><svg viewBox="0 0 171.97061280000003 11.729059142592396" height="11.729059142592396" width="171.97061280000003"><g transform="matrix(1,0,0,1,0,0)"><svg width="171.97061280000003" viewBox="0.34 -36.72 679.6999999999999 46.36" height="11.729059142592396" data-palette-color="#ffffff"><path d="M12.45-21.61L12.45-21.61Q11.62-21.61 10.96-21.24 10.3-20.87 10.3-19.92L10.3-19.92Q10.3-19.14 10.67-18.73 11.04-18.31 11.72-18.02L11.72-18.02Q12.45-17.7 13.26-17.55 14.06-17.41 14.82-17.24L14.82-17.24Q17.07-16.75 19.02-15.59 20.97-14.43 22.18-12.61 23.39-10.79 23.39-8.3L23.39-8.3Q23.39-4.96 21.88-2.98 20.36-1 17.86-0.15 15.36 0.71 12.38 0.71L12.38 0.71Q11.62 0.71 10.29 0.51 8.96 0.32 8.33-0.02L8.33-0.02 8.3-0.02Q8.06-0.15 7.5-0.29 6.93-0.44 6.67-0.44L6.67-0.44Q5.91-0.44 5.37 0.16 4.83 0.76 4.05 0.76L4.05 0.76Q3 0.76 2.4 0.07 1.81-0.61 1.5-1.55 1.2-2.49 0.95-3.3L0.95-3.3Q0.78-3.98 0.56-4.65 0.34-5.32 0.34-6.03L0.34-6.03Q0.34-7.3 1.03-8.08 1.71-8.86 3-8.86L3-8.86Q4.27-8.86 5.1-8.31 5.93-7.76 6.58-6.96 7.23-6.15 7.9-5.33 8.57-4.52 9.52-3.97 10.47-3.42 11.91-3.42L11.91-3.42Q12.92-3.42 13.43-4.02 13.94-4.61 13.94-5.57L13.94-5.57Q13.94-6.93 13.21-7.32 12.48-7.71 11.33-7.93L11.33-7.93Q9.23-8.35 7.34-8.91 5.44-9.47 3.99-10.45 2.54-11.43 1.7-13.04 0.85-14.65 0.85-17.19L0.85-17.19Q0.85-20.19 2.49-22.08 4.13-23.97 6.65-24.88 9.18-25.78 11.79-25.78L11.79-25.78Q12.79-25.78 13.76-25.71 14.72-25.63 15.67-25.32L15.67-25.32Q15.8-25.29 16.25-25.12 16.7-24.95 17.14-24.79 17.58-24.63 17.58-24.63L17.58-24.63Q18.38-24.63 18.96-25.21 19.53-25.78 20.34-25.78L20.34-25.78Q21.36-25.78 21.85-24.99 22.34-24.19 22.55-23.14 22.75-22.09 22.88-21.36L22.88-21.36Q22.97-20.8 23.07-20.23 23.17-19.65 23.17-19.09L23.17-19.09Q23.17-18.12 22.72-17.25 22.27-16.38 21.12-16.38L21.12-16.38Q19.97-16.38 19.09-17.18 18.21-17.97 17.33-18.99 16.46-20.02 15.31-20.81 14.16-21.61 12.45-21.61ZM36.37-25.78L36.37-25.78Q37.38-25.78 37.92-25.1 38.47-24.41 38.47-23.46L38.47-23.46 38.47-7.35Q38.47-6.67 38.54-5.97 38.6-5.27 39.08-4.76L39.08-4.76Q39.72-4.08 40.15-3.69 40.57-3.3 40.57-2.22L40.57-2.22Q40.57-1.15 39.9-0.57 39.23 0 38.18 0L38.18 0 27.81 0Q26.76 0 26.08-0.56 25.41-1.12 25.41-2.22L25.41-2.22Q25.41-3.27 25.83-3.7 26.24-4.13 26.9-4.76L26.9-4.76Q27.39-5.25 27.45-5.98 27.51-6.71 27.51-7.35L27.51-7.35 27.51-15.87Q27.51-16.36 27.44-16.88 27.37-17.41 27.02-17.77L27.02-17.77Q26.93-17.9 26.79-17.97 26.66-18.04 26.56-18.14L26.56-18.14Q26.02-18.7 25.57-19.06 25.12-19.41 25.12-20.31L25.12-20.31Q25.12-21.29 25.73-21.83 26.34-22.36 27.17-22.68L27.17-22.68 32.44-24.8Q33.37-25.17 34.37-25.48 35.37-25.78 36.37-25.78ZM32.71-25.88L32.71-25.88Q31.15-25.88 29.56-26.34 27.98-26.81 26.91-27.89 25.85-28.98 25.85-30.83L25.85-30.83Q25.85-32.69 26.93-33.75 28-34.81 29.59-35.25 31.17-35.69 32.71-35.69L32.71-35.69Q34.25-35.69 35.85-35.25 37.45-34.81 38.54-33.75 39.62-32.69 39.62-30.83L39.62-30.83Q39.62-28.96 38.55-27.87 37.47-26.78 35.87-26.33 34.27-25.88 32.71-25.88ZM53.9-25.78L53.9-25.78Q54.9-25.78 55.43-25.09 55.95-24.39 55.95-23.46L55.95-23.46 55.95-21Q57.86-22.8 60.16-24.29 62.47-25.78 64.67-25.78L64.67-25.78Q67.28-25.78 68.84-24.27 70.41-22.75 71.02-20.58L71.02-20.58Q72.31-21.85 73.8-23.05 75.29-24.24 76.9-25.01 78.51-25.78 80.17-25.78L80.17-25.78Q82.49-25.78 83.99-24.57 85.49-23.36 86.21-21.47 86.93-19.58 86.93-17.5L86.93-17.5 86.93-7.35Q86.93-6.79 87.01-5.94 87.08-5.1 87.54-4.71L87.54-4.71 87.54-4.69Q88.08-4.13 88.5-3.6 88.91-3.08 88.91-2.22L88.91-2.22Q88.91-1.15 88.25-0.57 87.59 0 86.54 0L86.54 0 76.51 0Q75.51 0 74.95-0.62 74.38-1.25 74.38-2.22L74.38-2.22Q74.38-3.13 74.81-3.61 75.24-4.1 75.65-4.7 76.07-5.3 76.07-6.45L76.07-6.45 76.07-14.87Q76.07-15.55 75.92-16.32 75.78-17.09 75.34-17.65 74.9-18.21 74.02-18.21L74.02-18.21Q73.21-18.21 72.59-17.77 71.97-17.33 71.43-16.8L71.43-16.8 71.43-6.67Q71.43-5.37 71.85-4.74 72.26-4.1 72.68-3.61 73.09-3.13 73.09-2.22L73.09-2.22Q73.09-1.22 72.54-0.61 71.99 0 70.97 0L70.97 0 61.01 0Q59.98 0 59.44-0.62 58.91-1.25 58.91-2.22L58.91-2.22Q58.91-3.13 59.32-3.63 59.74-4.13 60.15-4.71 60.57-5.3 60.57-6.45L60.57-6.45 60.57-14.87Q60.57-15.55 60.42-16.32 60.27-17.09 59.83-17.65 59.39-18.21 58.52-18.21L58.52-18.21Q57.73-18.21 57.1-17.79 56.46-17.36 55.95-16.8L55.95-16.8 55.95-6.67Q55.95-5.35 56.37-4.71 56.78-4.08 57.2-3.6 57.61-3.13 57.61-2.22L57.61-2.22Q57.61-1.25 57.08-0.62 56.54 0 55.51 0L55.51 0 45.48 0Q44.43 0 43.77-0.57 43.11-1.15 43.11-2.22L43.11-2.22Q43.11-3.3 43.61-3.81 44.11-4.32 44.6-4.92 45.09-5.52 45.09-6.81L45.09-6.81 45.09-15.87Q45.09-16.97 44.75-17.52 44.4-18.07 43.96-18.38 43.53-18.7 43.18-19.1 42.84-19.51 42.84-20.31L42.84-20.31Q42.84-21.31 43.44-21.83 44.04-22.34 44.87-22.68L44.87-22.68 50.02-24.8Q50.95-25.2 51.91-25.49 52.88-25.78 53.9-25.78ZM101.82-25.78L101.82-25.78Q103.24-25.78 103.59-24.77 103.95-23.75 103.95-22.63L103.95-22.63Q103.95-22.49 103.95-22.36L103.95-22.36Q105.44-23.88 107.32-24.83 109.2-25.78 111.52-25.78L111.52-25.78Q114.06-25.78 115.96-24.71 117.86-23.63 119.12-21.85 120.38-20.07 121.01-17.86 121.65-15.65 121.65-13.38L121.65-13.38Q121.65-9.62 120.16-6.41 118.67-3.2 115.85-1.25 113.03 0.71 109.03 0.71L109.03 0.71Q106.49 0.71 104.44-0.34L104.44-0.34 104.44 2.29Q104.44 3.15 104.48 3.6 104.53 4.05 104.78 4.43 105.02 4.81 105.61 5.44L105.61 5.44Q106.07 5.93 106.29 6.32 106.51 6.71 106.51 7.42L106.51 7.42Q106.51 8.47 105.83 9.06 105.14 9.64 104.12 9.64L104.12 9.64 93.72 9.64Q92.67 9.64 91.98 9.08 91.3 8.52 91.3 7.42L91.3 7.42Q91.3 6.54 91.63 6.1 91.96 5.66 92.38 5.32 92.79 4.98 93.12 4.42 93.45 3.86 93.45 2.76L93.45 2.76 93.45-15.87Q93.45-16.99 93.08-17.54 92.72-18.09 92.23-18.4 91.74-18.7 91.37-19.09 91.01-19.48 91.01-20.31L91.01-20.31Q91.01-21.24 91.66-21.8 92.3-22.36 93.06-22.68L93.06-22.68 97.89-24.8Q98.82-25.22 99.81-25.5 100.8-25.78 101.82-25.78ZM106.39-19.43L106.39-19.43Q105.34-19.43 104.44-18.73L104.44-18.73 104.44-5.83Q104.9-5.4 105.46-5.13 106.02-4.86 106.71-4.86L106.71-4.86Q107.9-4.86 108.62-5.65 109.34-6.45 109.72-7.64 110.1-8.84 110.22-10.06 110.34-11.28 110.34-12.16L110.34-12.16Q110.34-13.11 110.2-14.34 110.05-15.58 109.64-16.74 109.22-17.9 108.44-18.66 107.66-19.43 106.39-19.43ZM135.78-36.72L135.78-36.72Q136.78-36.72 137.33-36.04 137.88-35.35 137.88-34.4L137.88-34.4 137.88-7.35Q137.88-6.64 137.95-5.97 138.03-5.3 138.56-4.76L138.56-4.76Q139.22-4.1 139.7-3.7 140.18-3.3 140.18-2.22L140.18-2.22Q140.18-1.12 139.49-0.56 138.81 0 137.76 0L137.76 0 127.02 0Q125.97 0 125.28-0.56 124.6-1.12 124.6-2.22L124.6-2.22Q124.6-3.15 124.94-3.58 125.28-4 125.75-4.32 126.21-4.64 126.55-5.21 126.89-5.79 126.89-7.03L126.89-7.03 126.89-26.83Q126.89-28 126.5-28.54 126.11-29.08 125.59-29.36 125.06-29.64 124.67-30.02 124.28-30.4 124.28-31.25L124.28-31.25Q124.28-32.23 124.92-32.76 125.55-33.3 126.36-33.62L126.36-33.62 131.8-35.74Q132.78-36.13 133.75-36.43 134.73-36.72 135.78-36.72ZM153.8-25.78L153.8-25.78Q154.8-25.78 155.35-25.1 155.9-24.41 155.9-23.46L155.9-23.46 155.9-7.35Q155.9-6.67 155.96-5.97 156.02-5.27 156.51-4.76L156.51-4.76Q157.14-4.08 157.57-3.69 158-3.3 158-2.22L158-2.22Q158-1.15 157.32-0.57 156.65 0 155.6 0L155.6 0 145.23 0Q144.18 0 143.51-0.56 142.83-1.12 142.83-2.22L142.83-2.22Q142.83-3.27 143.25-3.7 143.66-4.13 144.32-4.76L144.32-4.76Q144.81-5.25 144.87-5.98 144.93-6.71 144.93-7.35L144.93-7.35 144.93-15.87Q144.93-16.36 144.86-16.88 144.79-17.41 144.45-17.77L144.45-17.77Q144.35-17.9 144.21-17.97 144.08-18.04 143.98-18.14L143.98-18.14Q143.44-18.7 142.99-19.06 142.54-19.41 142.54-20.31L142.54-20.31Q142.54-21.29 143.15-21.83 143.76-22.36 144.59-22.68L144.59-22.68 149.87-24.8Q150.79-25.17 151.79-25.48 152.8-25.78 153.8-25.78ZM150.13-25.88L150.13-25.88Q148.57-25.88 146.98-26.34 145.4-26.81 144.34-27.89 143.27-28.98 143.27-30.83L143.27-30.83Q143.27-32.69 144.35-33.75 145.42-34.81 147.01-35.25 148.6-35.69 150.13-35.69L150.13-35.69Q151.67-35.69 153.27-35.25 154.87-34.81 155.96-33.75 157.04-32.69 157.04-30.83L157.04-30.83Q157.04-28.96 155.97-27.87 154.89-26.78 153.3-26.33 151.7-25.88 150.13-25.88ZM174.13-18.55L174.13-18.55 174.13-7.35Q174.13-5.62 174.61-5.21 175.08-4.81 176.72-4.61L176.72-4.61Q178.01-4.44 178.77-4.13 179.53-3.81 179.53-2.22L179.53-2.22Q179.53-1.12 178.87-0.56 178.21 0 177.13 0L177.13 0 162.12 0Q161.09 0 160.42-0.55 159.75-1.1 159.75-2.17L159.75-2.17Q159.75-3.42 160.26-3.88 160.78-4.35 161.45-4.6 162.12-4.86 162.63-5.42 163.14-5.98 163.14-7.45L163.14-7.45 163.14-16.87Q163.14-17.77 162.52-18.21 161.9-18.65 161.09-19.01 160.29-19.36 159.67-19.93 159.04-20.51 159.04-21.66L159.04-21.66Q159.04-22.66 159.7-23.18 160.36-23.71 161.29-23.71L161.29-23.71 163.22-23.71 163.22-23.97Q163.22-24.19 162.5-24.78 161.78-25.37 161.04-26.29 160.31-27.22 160.31-28.39L160.31-28.39Q160.31-30.57 161.28-32.07 162.24-33.57 163.82-34.48 165.39-35.4 167.27-35.82 169.15-36.23 170.98-36.23L170.98-36.23Q172.64-36.23 174.4-35.84 176.16-35.45 177.68-34.61 179.21-33.76 180.15-32.39 181.09-31.01 181.09-29.03L181.09-29.03Q181.09-27.03 179.97-25.85 178.84-24.68 176.82-24.68L176.82-24.68Q174.69-24.68 173.41-25.93 172.13-27.17 172.13-29.32L172.13-29.32Q172.13-30.05 172.07-30.77 172.01-31.49 171.62-31.97 171.23-32.45 170.25-32.45L170.25-32.45Q169.25-32.45 168.92-31.77 168.59-31.1 168.59-30.25L168.59-30.25Q168.59-29.27 169.28-28.49 169.98-27.71 170.9-27 171.81-26.29 172.51-25.55 173.2-24.8 173.2-23.93L173.2-23.93 173.2-23.71 177.67-23.71Q178.57-23.71 179.23-23.25 179.89-22.8 179.89-21.8L179.89-21.8Q179.89-20.31 178.92-19.62 177.94-18.92 176.6-18.74 175.25-18.55 174.13-18.55ZM193.15-25.78L193.15-25.78Q194.15-25.78 194.7-25.1 195.25-24.41 195.25-23.46L195.25-23.46 195.25-7.35Q195.25-6.67 195.31-5.97 195.37-5.27 195.86-4.76L195.86-4.76Q196.49-4.08 196.92-3.69 197.35-3.3 197.35-2.22L197.35-2.22Q197.35-1.15 196.67-0.57 196 0 194.95 0L194.95 0 184.58 0Q183.53 0 182.86-0.56 182.18-1.12 182.18-2.22L182.18-2.22Q182.18-3.27 182.6-3.7 183.01-4.13 183.67-4.76L183.67-4.76Q184.16-5.25 184.22-5.98 184.28-6.71 184.28-7.35L184.28-7.35 184.28-15.87Q184.28-16.36 184.21-16.88 184.14-17.41 183.8-17.77L183.8-17.77Q183.7-17.9 183.56-17.97 183.43-18.04 183.33-18.14L183.33-18.14Q182.8-18.7 182.34-19.06 181.89-19.41 181.89-20.31L181.89-20.31Q181.89-21.29 182.5-21.83 183.11-22.36 183.94-22.68L183.94-22.68 189.22-24.8Q190.14-25.17 191.14-25.48 192.15-25.78 193.15-25.78ZM189.48-25.88L189.48-25.88Q187.92-25.88 186.34-26.34 184.75-26.81 183.69-27.89 182.62-28.98 182.62-30.83L182.62-30.83Q182.62-32.69 183.7-33.75 184.77-34.81 186.36-35.25 187.95-35.69 189.48-35.69L189.48-35.69Q191.02-35.69 192.62-35.25 194.22-34.81 195.31-33.75 196.39-32.69 196.39-30.83L196.39-30.83Q196.39-28.96 195.32-27.87 194.25-26.78 192.65-26.33 191.05-25.88 189.48-25.88ZM223.98-16.14L223.98-16.14Q223.98-13.96 222.7-12.84 221.42-11.72 219.32-11.72L219.32-11.72 209.48-11.72Q210.04-9.62 211.48-8.19 212.92-6.76 215.63-6.76L215.63-6.76Q216.7-6.76 217.77-7.21 218.83-7.67 219.77-8.28 220.71-8.89 221.42-9.34 222.12-9.79 222.49-9.79L222.49-9.79Q223.2-9.79 223.52-9.29 223.83-8.79 223.83-8.15L223.83-8.15Q223.83-5.93 222.79-4.26 221.76-2.59 220.06-1.49 218.36-0.39 216.35 0.16 214.34 0.71 212.38 0.71L212.38 0.71Q208.55 0.71 205.62-0.88 202.69-2.47 201.04-5.33 199.39-8.2 199.39-12.08L199.39-12.08Q199.39-16.24 200.99-19.31 202.59-22.39 205.6-24.08 208.6-25.78 212.8-25.78L212.8-25.78Q215.7-25.78 218.25-24.68 220.81-23.58 222.39-21.44 223.98-19.29 223.98-16.14ZM209.04-15.48L209.04-15.48Q209.04-15.21 209.04-14.94L209.04-14.94 211.58-14.94Q212.5-14.94 212.85-15.37 213.19-15.8 213.19-16.67L213.19-16.67Q213.19-17.26 213.04-18.21 212.9-19.17 212.47-19.92 212.04-20.68 211.23-20.68L211.23-20.68Q210.5-20.68 210.06-20.08 209.62-19.48 209.4-18.59 209.18-17.7 209.11-16.85 209.04-15.99 209.04-15.48ZM226.32-11.69L226.32-11.69Q226.32-15.41 227.76-18.62 229.2-21.83 231.96-23.8 234.72-25.78 238.7-25.78L238.7-25.78Q241.09-25.78 243.07-24.76L243.07-24.76 243.07-26.83Q243.07-27.91 242.71-28.44 242.36-28.98 241.91-29.31 241.46-29.64 241.1-30.04 240.75-30.44 240.75-31.25L240.75-31.25Q240.75-32.25 241.35-32.78 241.95-33.3 242.78-33.62L242.78-33.62 248.07-35.74Q249-36.13 249.98-36.43 250.95-36.72 251.98-36.72L251.98-36.72Q252.98-36.72 253.51-36.02 254.03-35.33 254.03-34.4L254.03-34.4 254.03-7.18Q254.03-5.98 254.2-5.52 254.37-5.05 255.2-4.17L255.2-4.17Q255.69-3.66 255.89-3.31 256.08-2.95 256.08-2.22L256.08-2.22Q256.08-1.17 255.4-0.59 254.71 0 253.69 0L253.69 0 248.22 0Q246.85 0 245.6-0.84 244.34-1.68 243.83-2.98L243.83-2.98Q242.34-1.37 240.44-0.33 238.55 0.71 236.21 0.71L236.21 0.71Q233.72 0.71 231.85-0.38 229.98-1.46 228.76-3.28 227.54-5.1 226.93-7.3 226.32-9.5 226.32-11.69ZM237.65-12.92L237.65-12.92Q237.65-12.04 237.78-10.8 237.92-9.57 238.3-8.39 238.67-7.2 239.42-6.41 240.16-5.62 241.36-5.62L241.36-5.62Q242.29-5.62 243.07-6.25L243.07-6.25 243.07-19.29Q242.65-19.7 242.14-19.96 241.63-20.21 241.02-20.21L241.02-20.21Q239.89-20.21 239.22-19.4 238.55-18.58 238.21-17.37 237.87-16.16 237.76-14.94 237.65-13.72 237.65-12.92ZM285.01-18.55L285.01-18.55 285.01-7.35Q285.01-5.62 285.48-5.21 285.96-4.81 287.59-4.61L287.59-4.61Q288.89-4.44 289.65-4.13 290.4-3.81 290.4-2.22L290.4-2.22Q290.4-1.12 289.74-0.56 289.08 0 288.01 0L288.01 0 272.99 0Q271.97 0 271.3-0.55 270.63-1.1 270.63-2.17L270.63-2.17Q270.63-3.42 271.14-3.88 271.65-4.35 272.32-4.6 272.99-4.86 273.51-5.42 274.02-5.98 274.02-7.45L274.02-7.45 274.02-16.87Q274.02-17.77 273.4-18.21 272.78-18.65 271.97-19.01 271.16-19.36 270.54-19.93 269.92-20.51 269.92-21.66L269.92-21.66Q269.92-22.66 270.58-23.18 271.24-23.71 272.16-23.71L272.16-23.71 274.09-23.71 274.09-23.97Q274.09-24.19 273.37-24.78 272.65-25.37 271.92-26.29 271.19-27.22 271.19-28.39L271.19-28.39Q271.19-30.57 272.15-32.07 273.12-33.57 274.69-34.48 276.27-35.4 278.15-35.82 280.03-36.23 281.86-36.23L281.86-36.23Q283.52-36.23 285.28-35.84 287.03-35.45 288.56-34.61 290.08-33.76 291.02-32.39 291.96-31.01 291.96-29.03L291.96-29.03Q291.96-27.03 290.84-25.85 289.72-24.68 287.69-24.68L287.69-24.68Q285.57-24.68 284.29-25.93 283-27.17 283-29.32L283-29.32Q283-30.05 282.94-30.77 282.88-31.49 282.49-31.97 282.1-32.45 281.12-32.45L281.12-32.45Q280.12-32.45 279.79-31.77 279.46-31.1 279.46-30.25L279.46-30.25Q279.46-29.27 280.16-28.49 280.86-27.71 281.77-27 282.69-26.29 283.38-25.55 284.08-24.8 284.08-23.93L284.08-23.93 284.08-23.71 288.55-23.71Q289.45-23.71 290.11-23.25 290.77-22.8 290.77-21.8L290.77-21.8Q290.77-20.31 289.79-19.62 288.82-18.92 287.47-18.74 286.13-18.55 285.01-18.55ZM315.96-16.14L315.96-16.14Q315.96-13.96 314.68-12.84 313.4-11.72 311.3-11.72L311.3-11.72 301.46-11.72Q302.02-9.62 303.46-8.19 304.9-6.76 307.61-6.76L307.61-6.76Q308.69-6.76 309.75-7.21 310.81-7.67 311.75-8.28 312.69-8.89 313.4-9.34 314.11-9.79 314.47-9.79L314.47-9.79Q315.18-9.79 315.5-9.29 315.81-8.79 315.81-8.15L315.81-8.15Q315.81-5.93 314.78-4.26 313.74-2.59 312.04-1.49 310.35-0.39 308.33 0.16 306.32 0.71 304.36 0.71L304.36 0.71Q300.53 0.71 297.6-0.88 294.67-2.47 293.02-5.33 291.38-8.2 291.38-12.08L291.38-12.08Q291.38-16.24 292.98-19.31 294.57-22.39 297.58-24.08 300.58-25.78 304.78-25.78L304.78-25.78Q307.68-25.78 310.24-24.68 312.79-23.58 314.37-21.44 315.96-19.29 315.96-16.14ZM301.02-15.48L301.02-15.48Q301.02-15.21 301.02-14.94L301.02-14.94 303.56-14.94Q304.49-14.94 304.83-15.37 305.17-15.8 305.17-16.67L305.17-16.67Q305.17-17.26 305.02-18.21 304.88-19.17 304.45-19.92 304.02-20.68 303.22-20.68L303.22-20.68Q302.48-20.68 302.05-20.08 301.61-19.48 301.39-18.59 301.17-17.7 301.09-16.85 301.02-15.99 301.02-15.48ZM342.47-16.14L342.47-16.14Q342.47-13.96 341.19-12.84 339.91-11.72 337.81-11.72L337.81-11.72 327.97-11.72Q328.53-9.62 329.97-8.19 331.41-6.76 334.12-6.76L334.12-6.76Q335.2-6.76 336.26-7.21 337.32-7.67 338.26-8.28 339.2-8.89 339.91-9.34 340.62-9.79 340.98-9.79L340.98-9.79Q341.69-9.79 342.01-9.29 342.33-8.79 342.33-8.15L342.33-8.15Q342.33-5.93 341.29-4.26 340.25-2.59 338.55-1.49 336.86-0.39 334.84 0.16 332.83 0.71 330.88 0.71L330.88 0.71Q327.04 0.71 324.11-0.88 321.18-2.47 319.54-5.33 317.89-8.2 317.89-12.08L317.89-12.08Q317.89-16.24 319.49-19.31 321.09-22.39 324.09-24.08 327.09-25.78 331.29-25.78L331.29-25.78Q334.2-25.78 336.75-24.68 339.3-23.58 340.89-21.44 342.47-19.29 342.47-16.14ZM327.53-15.48L327.53-15.48Q327.53-15.21 327.53-14.94L327.53-14.94 330.07-14.94Q331-14.94 331.34-15.37 331.68-15.8 331.68-16.67L331.68-16.67Q331.68-17.26 331.53-18.21 331.39-19.17 330.96-19.92 330.53-20.68 329.73-20.68L329.73-20.68Q329-20.68 328.56-20.08 328.12-19.48 327.9-18.59 327.68-17.7 327.6-16.85 327.53-15.99 327.53-15.48ZM368.18-25.78L368.18-25.78Q369.18-25.78 369.7-25.09 370.23-24.39 370.23-23.46L370.23-23.46 370.23-21Q372.13-22.8 374.44-24.29 376.74-25.78 378.94-25.78L378.94-25.78Q381.55-25.78 383.12-24.27 384.68-22.75 385.29-20.58L385.29-20.58Q386.58-21.85 388.07-23.05 389.56-24.24 391.17-25.01 392.78-25.78 394.44-25.78L394.44-25.78Q396.76-25.78 398.27-24.57 399.77-23.36 400.49-21.47 401.21-19.58 401.21-17.5L401.21-17.5 401.21-7.35Q401.21-6.79 401.28-5.94 401.35-5.1 401.82-4.71L401.82-4.71 401.82-4.69Q402.36-4.13 402.77-3.6 403.19-3.08 403.19-2.22L403.19-2.22Q403.19-1.15 402.53-0.57 401.87 0 400.82 0L400.82 0 390.78 0Q389.78 0 389.22-0.62 388.66-1.25 388.66-2.22L388.66-2.22Q388.66-3.13 389.09-3.61 389.51-4.1 389.93-4.7 390.34-5.3 390.34-6.45L390.34-6.45 390.34-14.87Q390.34-15.55 390.2-16.32 390.05-17.09 389.61-17.65 389.17-18.21 388.29-18.21L388.29-18.21Q387.49-18.21 386.86-17.77 386.24-17.33 385.7-16.8L385.7-16.8 385.7-6.67Q385.7-5.37 386.12-4.74 386.53-4.1 386.95-3.61 387.36-3.13 387.36-2.22L387.36-2.22Q387.36-1.22 386.82-0.61 386.27 0 385.24 0L385.24 0 375.28 0Q374.25 0 373.72-0.62 373.18-1.25 373.18-2.22L373.18-2.22Q373.18-3.13 373.6-3.63 374.01-4.13 374.43-4.71 374.84-5.3 374.84-6.45L374.84-6.45 374.84-14.87Q374.84-15.55 374.69-16.32 374.55-17.09 374.11-17.65 373.67-18.21 372.79-18.21L372.79-18.21Q372.01-18.21 371.37-17.79 370.74-17.36 370.23-16.8L370.23-16.8 370.23-6.67Q370.23-5.35 370.64-4.71 371.06-4.08 371.47-3.6 371.89-3.13 371.89-2.22L371.89-2.22Q371.89-1.25 371.35-0.62 370.81 0 369.79 0L369.79 0 359.75 0Q358.7 0 358.04-0.57 357.38-1.15 357.38-2.22L357.38-2.22Q357.38-3.3 357.88-3.81 358.39-4.32 358.87-4.92 359.36-5.52 359.36-6.81L359.36-6.81 359.36-15.87Q359.36-16.97 359.02-17.52 358.68-18.07 358.24-18.38 357.8-18.7 357.46-19.1 357.12-19.51 357.12-20.31L357.12-20.31Q357.12-21.31 357.71-21.83 358.31-22.34 359.14-22.68L359.14-22.68 364.29-24.8Q365.22-25.2 366.19-25.49 367.15-25.78 368.18-25.78ZM405.11-5.62L405.11-5.62Q405.11-7.86 406.16-9.36 407.21-10.86 408.91-11.78 410.6-12.7 412.58-13.09 414.56-13.48 416.39-13.48L416.39-13.48Q416.93-13.48 417.49-13.46 418.05-13.45 418.59-13.35L418.59-13.35 418.59-19.7Q418.59-20.31 418.33-21.12 418.08-21.92 417.29-21.92L417.29-21.92Q416.54-21.92 416.35-21.3 416.17-20.68 416.17-20.12L416.17-20.12Q416.17-19.87 416.18-19.62 416.2-19.36 416.2-19.09L416.2-19.09Q416.2-16.58 414.46-15.56 412.73-14.55 410.51-14.55L410.51-14.55Q408.65-14.55 407.28-15.38 405.92-16.21 405.92-18.31L405.92-18.31Q405.92-19.14 406.25-19.92 406.58-20.7 407.09-21.31L407.09-21.31Q408.58-23.12 410.84-24.07 413.09-25.02 415.6-25.38 418.1-25.73 420.3-25.73L420.3-25.73Q422.79-25.73 424.86-25.02 426.94-24.32 428.18-22.67 429.43-21.02 429.43-18.24L429.43-18.24 429.43-6.98Q429.43-6.57 429.62-6.25 429.82-5.93 430.28-5.93L430.28-5.93Q430.65-5.93 430.9-6.16 431.16-6.4 431.53-6.4L431.53-6.4Q432.24-6.4 432.59-5.91 432.94-5.42 432.94-4.76L432.94-4.76Q432.94-3.05 431.91-1.82 430.87-0.59 429.33 0.06 427.79 0.71 426.23 0.71L426.23 0.71Q424.4 0.71 422.53-0.1 420.66-0.9 419.96-2.61L419.96-2.61Q418.71-0.88 416.55-0.09 414.39 0.71 412.31 0.71L412.31 0.71Q410.41 0.71 408.76-0.01 407.11-0.73 406.11-2.15 405.11-3.56 405.11-5.62ZM416.12-7.76L416.12-7.76Q416.12-6.79 416.59-5.92 417.05-5.05 418.17-5.05L418.17-5.05Q418.39-5.05 418.59-5.1L418.59-5.1 418.59-10.16Q418.17-10.33 417.73-10.33L417.73-10.33Q416.81-10.33 416.46-9.41 416.12-8.5 416.12-7.76ZM444.98-25.78L444.98-25.78Q445.98-25.78 446.5-25.09 447.03-24.39 447.03-23.46L447.03-23.46 447.03-21.22Q448.96-23 451.28-24.39 453.6-25.78 455.87-25.78L455.87-25.78Q458.23-25.78 459.8-24.61 461.36-23.44 462.15-21.56 462.95-19.68 462.95-17.5L462.95-17.5 462.95-7.35Q462.95-6.67 463.01-6.01 463.07-5.35 463.53-4.76L463.53-4.76Q464.09-4.05 464.52-3.66 464.95-3.27 464.95-2.22L464.95-2.22Q464.95-1.15 464.29-0.57 463.63 0 462.58 0L462.58 0 452.37 0Q451.35 0 450.8-0.61 450.25-1.22 450.25-2.22L450.25-2.22Q450.25-3.15 450.68-3.67 451.1-4.2 451.53-4.77 451.96-5.35 451.96-6.4L451.96-6.4 451.96-14.87Q451.96-16.02 451.51-17.11 451.06-18.21 449.64-18.21L449.64-18.21Q448.79-18.21 448.18-17.88 447.56-17.55 447.03-17.04L447.03-17.04 447.03-7.06Q447.03-6.4 447.08-5.73 447.13-5.05 447.56-4.49L447.56-4.49Q448.08-3.88 448.42-3.5 448.76-3.13 448.76-2.22L448.76-2.22Q448.76-1.22 448.21-0.61 447.66 0 446.64 0L446.64 0 436.43 0Q435.38 0 434.72-0.57 434.06-1.15 434.06-2.22L434.06-2.22Q434.06-3.03 434.37-3.48 434.67-3.93 435.06-4.32 435.46-4.71 435.76-5.27 436.07-5.83 436.07-6.81L436.07-6.81 436.07-15.87Q436.07-16.97 435.72-17.53 435.38-18.09 434.92-18.42 434.45-18.75 434.11-19.14 433.77-19.53 433.77-20.31L433.77-20.31Q433.77-21.26 434.41-21.81 435.04-22.36 435.82-22.68L435.82-22.68 441.1-24.8Q442.02-25.2 442.99-25.49 443.95-25.78 444.98-25.78ZM467-5.62L467-5.62Q467-7.86 468.05-9.36 469.1-10.86 470.79-11.78 472.49-12.7 474.47-13.09 476.44-13.48 478.28-13.48L478.28-13.48Q478.81-13.48 479.37-13.46 479.94-13.45 480.47-13.35L480.47-13.35 480.47-19.7Q480.47-20.31 480.22-21.12 479.96-21.92 479.18-21.92L479.18-21.92Q478.42-21.92 478.24-21.3 478.06-20.68 478.06-20.12L478.06-20.12Q478.06-19.87 478.07-19.62 478.08-19.36 478.08-19.09L478.08-19.09Q478.08-16.58 476.35-15.56 474.61-14.55 472.39-14.55L472.39-14.55Q470.54-14.55 469.17-15.38 467.8-16.21 467.8-18.31L467.8-18.31Q467.8-19.14 468.13-19.92 468.46-20.7 468.97-21.31L468.97-21.31Q470.46-23.12 472.72-24.07 474.98-25.02 477.48-25.38 479.98-25.73 482.18-25.73L482.18-25.73Q484.67-25.73 486.75-25.02 488.82-24.32 490.07-22.67 491.31-21.02 491.31-18.24L491.31-18.24 491.31-6.98Q491.31-6.57 491.51-6.25 491.7-5.93 492.17-5.93L492.17-5.93Q492.53-5.93 492.79-6.16 493.05-6.4 493.41-6.4L493.41-6.4Q494.12-6.4 494.47-5.91 494.83-5.42 494.83-4.76L494.83-4.76Q494.83-3.05 493.79-1.82 492.75-0.59 491.21 0.06 489.68 0.71 488.11 0.71L488.11 0.71Q486.28 0.71 484.42-0.1 482.55-0.9 481.84-2.61L481.84-2.61Q480.59-0.88 478.43-0.09 476.27 0.71 474.2 0.71L474.2 0.71Q472.29 0.71 470.65-0.01 469-0.73 468-2.15 467-3.56 467-5.62ZM478.01-7.76L478.01-7.76Q478.01-6.79 478.47-5.92 478.93-5.05 480.06-5.05L480.06-5.05Q480.28-5.05 480.47-5.1L480.47-5.1 480.47-10.16Q480.06-10.33 479.62-10.33L479.62-10.33Q478.69-10.33 478.35-9.41 478.01-8.5 478.01-7.76ZM523.85 1.95L523.85 1.95Q523.85 3.98 522.58 5.36 521.31 6.74 519.3 7.59 517.29 8.45 514.98 8.89 512.67 9.33 510.54 9.48 508.4 9.64 506.96 9.64L506.96 9.64Q505.98 9.64 504.48 9.58 502.98 9.52 501.34 9.28 499.71 9.03 498.28 8.51 496.85 7.98 495.95 7.06 495.05 6.13 495.05 4.71L495.05 4.71Q495.05 2.95 496.41 1.97 497.78 0.98 499.71 0.49L499.71 0.49Q498.83 0.15 498.24-0.5 497.66-1.15 497.66-2.25L497.66-2.25Q497.66-3.71 498.6-4.59 499.54-5.47 500.99-5.92 502.44-6.37 503.96-6.57L503.96-6.57Q501.78-7.08 499.89-8.13 498-9.18 496.84-10.94 495.68-12.7 495.68-15.28L495.68-15.28Q495.68-18.07 496.77-20.01 497.85-21.95 499.68-23.16 501.52-24.37 503.8-24.96 506.08-25.56 508.47-25.63L508.47-25.63Q509.23-27.64 510.29-29.64 511.35-31.64 513-32.98 514.65-34.33 517.09-34.33L517.09-34.33Q519.09-34.33 520.4-33.15 521.71-31.98 521.71-29.93L521.71-29.93Q521.71-28.27 520.89-26.92 520.07-25.56 518.19-25.56L518.19-25.56Q516.87-25.56 516.16-26.23 515.46-26.9 514.94-27.59 514.43-28.27 513.72-28.27L513.72-28.27Q512.97-28.27 512.43-27.33 511.89-26.39 511.57-25.54L511.57-25.54Q514.19-25.22 516.53-24.13 518.87-23.05 520.35-21.07 521.83-19.09 521.83-16.09L521.83-16.09Q521.83-13.43 520.74-11.51 519.65-9.59 517.84-8.37 516.02-7.15 513.76-6.58 511.5-6.01 509.16-6.01L509.16-6.01Q508.4-6.01 507.67-6.05L507.67-6.05Q507.37-5.76 507.37-5.47L507.37-5.47Q507.37-4.98 508.09-4.77 508.81-4.57 509.82-4.52 510.82-4.47 511.71-4.49 512.6-4.52 512.94-4.52L512.94-4.52Q514.7-4.52 516.6-4.36 518.51-4.2 520.16-3.59 521.8-2.98 522.83-1.67 523.85-0.37 523.85 1.95ZM508.06-21.9L508.06-21.9Q507.35-21.9 507.06-21.31 506.76-20.73 506.7-19.97 506.64-19.21 506.64-18.73L506.64-18.73Q506.64-18.07 506.73-16.61 506.81-15.16 507.08-13.57 507.35-11.99 507.9-10.88 508.45-9.77 509.4-9.77L509.4-9.77Q510.16-9.77 510.47-10.31 510.79-10.86 510.85-11.6 510.91-12.33 510.91-12.87L510.91-12.87Q510.91-13.57 510.84-15.05 510.77-16.53 510.51-18.1 510.26-19.68 509.67-20.79 509.08-21.9 508.06-21.9ZM503.81 2.76L503.81 2.76Q503.81 3.52 504.55 3.96 505.3 4.39 506.36 4.61 507.42 4.83 508.4 4.9 509.38 4.96 509.84 4.96L509.84 4.96Q510.38 4.96 511.46 4.8 512.55 4.64 513.48 4.22 514.41 3.81 514.41 3.03L514.41 3.03Q514.41 1.93 513.49 1.49 512.57 1.05 511.43 0.98 510.28 0.9 509.52 0.9L509.52 0.9Q508.4 0.9 507.28 0.95 506.15 1 505.03 1.03L505.03 1.03Q504.52 1.39 504.16 1.83 503.81 2.27 503.81 2.76ZM548.53-16.14L548.53-16.14Q548.53-13.96 547.25-12.84 545.97-11.72 543.87-11.72L543.87-11.72 534.03-11.72Q534.59-9.62 536.03-8.19 537.47-6.76 540.18-6.76L540.18-6.76Q541.26-6.76 542.32-7.21 543.38-7.67 544.32-8.28 545.26-8.89 545.97-9.34 546.68-9.79 547.04-9.79L547.04-9.79Q547.75-9.79 548.07-9.29 548.39-8.79 548.39-8.15L548.39-8.15Q548.39-5.93 547.35-4.26 546.31-2.59 544.62-1.49 542.92-0.39 540.9 0.16 538.89 0.71 536.94 0.71L536.94 0.71Q533.1 0.71 530.17-0.88 527.24-2.47 525.6-5.33 523.95-8.2 523.95-12.08L523.95-12.08Q523.95-16.24 525.55-19.31 527.15-22.39 530.15-24.08 533.15-25.78 537.35-25.78L537.35-25.78Q540.26-25.78 542.81-24.68 545.36-23.58 546.95-21.44 548.53-19.29 548.53-16.14ZM533.59-15.48L533.59-15.48Q533.59-15.21 533.59-14.94L533.59-14.94 536.13-14.94Q537.06-14.94 537.4-15.37 537.74-15.8 537.74-16.67L537.74-16.67Q537.74-17.26 537.6-18.21 537.45-19.17 537.02-19.92 536.6-20.68 535.79-20.68L535.79-20.68Q535.06-20.68 534.62-20.08 534.18-19.48 533.96-18.59 533.74-17.7 533.67-16.85 533.59-15.99 533.59-15.48ZM561.74-25.78L561.74-25.78Q562.74-25.78 563.27-25.09 563.79-24.39 563.79-23.46L563.79-23.46 563.79-21Q565.69-22.8 568-24.29 570.31-25.78 572.51-25.78L572.51-25.78Q575.12-25.78 576.68-24.27 578.24-22.75 578.85-20.58L578.85-20.58Q580.15-21.85 581.64-23.05 583.13-24.24 584.74-25.01 586.35-25.78 588.01-25.78L588.01-25.78Q590.33-25.78 591.83-24.57 593.33-23.36 594.05-21.47 594.77-19.58 594.77-17.5L594.77-17.5 594.77-7.35Q594.77-6.79 594.84-5.94 594.92-5.1 595.38-4.71L595.38-4.71 595.38-4.69Q595.92-4.13 596.33-3.6 596.75-3.08 596.75-2.22L596.75-2.22Q596.75-1.15 596.09-0.57 595.43 0 594.38 0L594.38 0 584.35 0Q583.35 0 582.78-0.62 582.22-1.25 582.22-2.22L582.22-2.22Q582.22-3.13 582.65-3.61 583.08-4.1 583.49-4.7 583.91-5.3 583.91-6.45L583.91-6.45 583.91-14.87Q583.91-15.55 583.76-16.32 583.61-17.09 583.18-17.65 582.74-18.21 581.86-18.21L581.86-18.21Q581.05-18.21 580.43-17.77 579.81-17.33 579.27-16.8L579.27-16.8 579.27-6.67Q579.27-5.37 579.68-4.74 580.1-4.1 580.51-3.61 580.93-3.13 580.93-2.22L580.93-2.22Q580.93-1.22 580.38-0.61 579.83 0 578.8 0L578.8 0 568.84 0Q567.82 0 567.28-0.62 566.74-1.25 566.74-2.22L566.74-2.22Q566.74-3.13 567.16-3.63 567.57-4.13 567.99-4.71 568.4-5.3 568.4-6.45L568.4-6.45 568.4-14.87Q568.4-15.55 568.26-16.32 568.11-17.09 567.67-17.65 567.23-18.21 566.35-18.21L566.35-18.21Q565.57-18.21 564.94-17.79 564.3-17.36 563.79-16.8L563.79-16.8 563.79-6.67Q563.79-5.35 564.21-4.71 564.62-4.08 565.04-3.6 565.45-3.13 565.45-2.22L565.45-2.22Q565.45-1.25 564.91-0.62 564.38 0 563.35 0L563.35 0 553.32 0Q552.27 0 551.61-0.57 550.95-1.15 550.95-2.22L550.95-2.22Q550.95-3.3 551.45-3.81 551.95-4.32 552.44-4.92 552.93-5.52 552.93-6.81L552.93-6.81 552.93-15.87Q552.93-16.97 552.58-17.52 552.24-18.07 551.8-18.38 551.36-18.7 551.02-19.1 550.68-19.51 550.68-20.31L550.68-20.31Q550.68-21.31 551.28-21.83 551.88-22.34 552.71-22.68L552.71-22.68 557.86-24.8Q558.79-25.2 559.75-25.49 560.71-25.78 561.74-25.78ZM623.26-16.14L623.26-16.14Q623.26-13.96 621.98-12.84 620.7-11.72 618.6-11.72L618.6-11.72 608.76-11.72Q609.32-9.62 610.76-8.19 612.2-6.76 614.91-6.76L614.91-6.76Q615.99-6.76 617.05-7.21 618.11-7.67 619.05-8.28 619.99-8.89 620.7-9.34 621.4-9.79 621.77-9.79L621.77-9.79Q622.48-9.79 622.8-9.29 623.11-8.79 623.11-8.15L623.11-8.15Q623.11-5.93 622.08-4.26 621.04-2.59 619.34-1.49 617.65-0.39 615.63 0.16 613.62 0.71 611.66 0.71L611.66 0.71Q607.83 0.71 604.9-0.88 601.97-2.47 600.32-5.33 598.68-8.2 598.68-12.08L598.68-12.08Q598.68-16.24 600.27-19.31 601.87-22.39 604.88-24.08 607.88-25.78 612.08-25.78L612.08-25.78Q614.98-25.78 617.54-24.68 620.09-23.58 621.67-21.44 623.26-19.29 623.26-16.14ZM608.32-15.48L608.32-15.48Q608.32-15.21 608.32-14.94L608.32-14.94 610.86-14.94Q611.79-14.94 612.13-15.37 612.47-15.8 612.47-16.67L612.47-16.67Q612.47-17.26 612.32-18.21 612.18-19.17 611.75-19.92 611.32-20.68 610.52-20.68L610.52-20.68Q609.78-20.68 609.34-20.08 608.9-19.48 608.69-18.59 608.47-17.7 608.39-16.85 608.32-15.99 608.32-15.48ZM636.71-25.78L636.71-25.78Q637.71-25.78 638.24-25.09 638.76-24.39 638.76-23.46L638.76-23.46 638.76-21.22Q640.69-23 643.01-24.39 645.33-25.78 647.6-25.78L647.6-25.78Q649.97-25.78 651.53-24.61 653.09-23.44 653.89-21.56 654.68-19.68 654.68-17.5L654.68-17.5 654.68-7.35Q654.68-6.67 654.74-6.01 654.8-5.35 655.26-4.76L655.26-4.76Q655.83-4.05 656.25-3.66 656.68-3.27 656.68-2.22L656.68-2.22Q656.68-1.15 656.02-0.57 655.36 0 654.31 0L654.31 0 644.11 0Q643.08 0 642.53-0.61 641.98-1.22 641.98-2.22L641.98-2.22Q641.98-3.15 642.41-3.67 642.84-4.2 643.27-4.77 643.69-5.35 643.69-6.4L643.69-6.4 643.69-14.87Q643.69-16.02 643.24-17.11 642.79-18.21 641.37-18.21L641.37-18.21Q640.52-18.21 639.91-17.88 639.3-17.55 638.76-17.04L638.76-17.04 638.76-7.06Q638.76-6.4 638.81-5.73 638.86-5.05 639.3-4.49L639.3-4.49Q639.81-3.88 640.15-3.5 640.49-3.13 640.49-2.22L640.49-2.22Q640.49-1.22 639.94-0.61 639.4 0 638.37 0L638.37 0 628.17 0Q627.12 0 626.46-0.57 625.8-1.15 625.8-2.22L625.8-2.22Q625.8-3.03 626.1-3.48 626.41-3.93 626.8-4.32 627.19-4.71 627.49-5.27 627.8-5.83 627.8-6.81L627.8-6.81 627.8-15.87Q627.8-16.97 627.46-17.53 627.12-18.09 626.65-18.42 626.19-18.75 625.85-19.14 625.5-19.53 625.5-20.31L625.5-20.31Q625.5-21.26 626.14-21.81 626.77-22.36 627.55-22.68L627.55-22.68 632.83-24.8Q633.76-25.2 634.72-25.49 635.68-25.78 636.71-25.78ZM670.25 0.71L670.25 0.71Q666.08 0.71 663.67-1.23 661.27-3.17 661.27-7.57L661.27-7.57 661.27-18.19Q661.27-19.24 660.8-19.75 660.34-20.26 659.73-20.59 659.12-20.92 658.66-21.4 658.19-21.88 658.19-22.85L658.19-22.85Q658.19-23.85 658.9-24.43 659.61-25 660.56-25L660.56-25 661.66-25Q662.37-25 663.06-25.72 663.76-26.44 664.48-27.51 665.2-28.59 665.99-29.65 666.79-30.71 667.69-31.43 668.59-32.15 669.67-32.15L669.67-32.15Q670.89-32.15 671.57-31.47 672.25-30.79 672.25-29.57L672.25-29.57 672.25-25 677.8-25Q678.72-25 679.38-24.56 680.04-24.12 680.04-23.1L680.04-23.1Q680.04-21.73 679.18-21.02 678.31-20.31 677.09-20.08 675.87-19.85 674.79-19.85L674.79-19.85 672.25-19.85 672.25-10.18Q672.25-8.98 672.72-7.92 673.18-6.86 674.62-6.86L674.62-6.86Q675.57-6.86 676.25-7.41 676.92-7.96 677.52-8.5 678.11-9.03 678.8-9.03L678.8-9.03Q679.43-9.03 679.69-8.42 679.94-7.81 679.94-7.32L679.94-7.32Q679.94-4.86 678.46-3.05 676.97-1.25 674.73-0.27 672.5 0.71 670.25 0.71Z" opacity="1" transform="matrix(1,0,0,1,0,0)" fill="#ffffff" class="slogan-text-1" data-fill-palette-color="secondary" id="text-1"></path></svg></g></svg></g></svg></g></svg></g></svg></g><defs></defs></svg><rect width="251.52311753213715" height="280" fill="none" stroke="none" visibility="hidden"></rect></g></svg></g></svg>